<?xml version="1.0" encoding="UTF-8"?>
<svg version="1.1" xmlns="http://www.w3.org/2000/svg" width="897" height="817">
<path d="M0 0 C296.01 0 592.02 0 897 0 C897 269.61 897 539.22 897 817 C600.99 817 304.98 817 0 817 C0 547.39 0 277.78 0 0 Z " fill="#FEFEFE" transform="translate(0,0)"/>
<path d="M0 0 C8.39281636 6.6748838 13.42425819 14.23371206 16.83203125 24.45703125 C18.19209409 39.13445427 16.41040866 51.78200441 6.83203125 63.45703125 C2.12468685 68.38899997 -2.90069354 71.81752013 -9.16796875 74.45703125 C-9.874375 74.8128125 -10.58078125 75.16859375 -11.30859375 75.53515625 C-21.22650395 78.73273386 -34.43531427 77.62269343 -43.62890625 73 C-53.89887115 66.75902133 -61.66659615 59.12181588 -65.44921875 47.48046875 C-68.62380645 34.12649659 -67.36678138 22.14790296 -60.16796875 10.45703125 C-53.65228444 1.04926774 -44.29489255 -4.80697093 -33.1328125 -7.10546875 C-21.48804084 -8.82380133 -9.82286381 -6.8449851 0 0 Z " fill="#010101" transform="translate(418.16796875,149.54296875)"/>
<path d="M0 0 C11.06886758 6.71050097 18.60927135 16.40967536 22.125 28.89453125 C22.5392388 31.86720533 22.60265373 34.77117198 22.5625 37.76953125 C22.55565186 38.5589209 22.54880371 39.34831055 22.54174805 40.16162109 C22.370076 46.41254092 21.24260602 51.41572198 18.125 56.89453125 C17.58166016 57.9309375 17.58166016 57.9309375 17.02734375 58.98828125 C11.28590615 69.10878143 2.44771611 76.18602441 -8.79516602 79.45239258 C-19.20099353 81.66450123 -31.17526302 80.80006513 -40.34765625 75.453125 C-51.24371994 68.36986188 -58.25093502 59.4854923 -61.875 46.89453125 C-63.45275015 33.6949608 -61.04774466 22.17068334 -53.12109375 11.54296875 C-39.82941407 -4.51445437 -18.68717178 -9.23544253 0 0 Z " fill="#020202" transform="translate(530.875,630.10546875)"/>
<path d="M0 0 C0.72574219 0.39703125 1.45148437 0.7940625 2.19921875 1.203125 C12.29575841 7.10054928 19.90867648 16.70477945 23 28 C24.67402435 41.40344062 22.91660219 52.71675694 14.94921875 63.87109375 C10.0960259 69.67251256 4.75203165 73.65161115 -2 77 C-2.94939453 77.50853516 -2.94939453 77.50853516 -3.91796875 78.02734375 C-13.66123656 82.53542289 -26.25450571 80.56476356 -36 77 C-46.22297265 72.43805492 -53.65141547 64.86702551 -58 54.5625 C-61.88011875 44.22898929 -63.05780443 32.92132393 -58.875 22.4375 C-53.62315303 11.66900706 -45.80609993 3.30481269 -35 -2 C-23.90566253 -5.79398948 -10.3237648 -5.89929417 0 0 Z " fill="#010101" transform="translate(715,332)"/>
<path d="M0 0 C7.66910791 6.25476196 14.45412625 15.48229266 15.49755859 25.64453125 C16.03360698 39.70849153 14.81268956 51.58269293 5.30859375 62.77001953 C-3.72742218 71.77080733 -13.98565833 76.10836638 -26.6328125 76.32861328 C-38.52713574 76.22020308 -48.0740989 71.98942471 -56.6953125 63.76611328 C-62.40363141 57.78596966 -65.30078104 51.61914655 -67.6953125 43.76611328 C-68.1903125 42.28111328 -68.1903125 42.28111328 -68.6953125 40.76611328 C-69.63572708 27.62217925 -66.91466936 15.96403585 -58.5703125 5.57861328 C-43.06563393 -10.96417552 -18.24257388 -13.2773572 0 0 Z " fill="#010101" transform="translate(234.6953125,449.23388671875)"/>
<path d="M0 0 C1.83936699 1.05880563 3.65645943 2.15827526 5.4375 3.3125 C6.35982422 3.90417969 6.35982422 3.90417969 7.30078125 4.5078125 C13.66960957 9.21449183 18.77327793 17.57876216 20.4375 25.3125 C21.36608937 35.23219274 20.14821672 43.94228165 14.265625 52.109375 C8.59530266 58.94284039 1.67297892 65.4838971 -7.47265625 66.53125 C-16.05407126 67.16339844 -24.18628948 67.22997368 -31.5625 62.3125 C-32.32949219 61.81492187 -33.09648437 61.31734375 -33.88671875 60.8046875 C-41.7315034 55.22905543 -46.35224278 48.6986596 -48.5625 39.3125 C-49.85551804 27.33965028 -48.30167741 18.65815655 -40.734375 8.97265625 C-30.41865876 -2.28657062 -13.9947077 -6.8395188 0 0 Z " fill="#020202" transform="translate(509.5625,174.6875)"/>
<path d="M0 0 C8.98871699 5.14760828 13.73354696 12.22834465 18.0625 21.4765625 C19.98422378 30.89300901 19.21786961 40.84857435 14.125 49.1015625 C8.45677722 56.95198243 1.35474543 63.48220177 -8.3125 65.5390625 C-17.21928869 66.40100979 -25.54186621 66.53224084 -33.3125 61.5390625 C-33.99570313 61.1265625 -34.67890625 60.7140625 -35.3828125 60.2890625 C-43.19057041 55.06409903 -48.23010131 47.66658575 -50.3125 38.5390625 C-51.46934166 27.8271537 -50.64095631 19.56819762 -44.3125 10.5390625 C-33.07281763 -3.26644635 -16.39611759 -7.80559853 0 0 Z " fill="#020202" transform="translate(246.3125,551.4609375)"/>
<path d="M0 0 C3.1875 1.9375 3.1875 1.9375 6 4 C6.825 4.556875 7.65 5.11375 8.5 5.6875 C14.72745502 11.4478959 18.52186963 18.43017702 19.40625 26.8828125 C19.84124886 38.76302186 17.48021688 47.37722849 9.3125 56.4375 C1.58579572 63.59738041 -8.13651836 66.43565535 -18.44140625 66.34375 C-27.07361001 65.50990375 -35.24361882 61.52389867 -41 55 C-48.70418128 45.17808168 -51.30939564 36.56156478 -50 24 C-49.06726619 20.70434055 -47.75701125 17.93037863 -46 15 C-45.401875 13.96875 -44.80375 12.9375 -44.1875 11.875 C-33.59686515 -2.04412009 -16.42651627 -8.51745288 0 0 Z " fill="#020202" transform="translate(626,615)"/>
<path d="M0 0 C9.39565013 5.49632225 15.8137668 13.11711832 18.7578125 23.61328125 C19.9674025 34.84336951 18.33144856 44.78707165 11.5078125 53.98828125 C7.8840349 57.44734168 4.09212179 60.11441926 -0.2421875 62.61328125 C-0.83515625 62.95746094 -1.428125 63.30164063 -2.0390625 63.65625 C-9.62186514 67.22956186 -19.77659285 67.0049563 -27.6640625 64.546875 C-37.34023415 60.04033313 -44.24422882 53.52901046 -48.2421875 43.61328125 C-48.59796875 42.85917969 -48.95375 42.10507813 -49.3203125 41.328125 C-51.61953507 34.55710938 -51.38900787 25.29350239 -48.6171875 18.67578125 C-47.5 16.59765625 -47.5 16.59765625 -46.2421875 14.61328125 C-45.80648438 13.9171875 -45.37078125 13.22109375 -44.921875 12.50390625 C-34.4578503 -2.70609687 -16.89934225 -7.999022 0 0 Z " fill="#020202" transform="translate(309.2421875,175.38671875)"/>
<path d="M0 0 C8.56410299 5.40509377 14.38393376 12.18990271 18.62109375 21.26953125 C21.13632224 32.93104514 18.5006274 42.58016777 12.30859375 52.45703125 C7.41391915 59.97385295 -0.30696336 63.99057105 -8.8671875 65.984375 C-19.57537464 67.77647824 -27.96386155 65.88516417 -36.94140625 59.76953125 C-41.23537064 56.32568507 -44.03913506 52.24103442 -46.69140625 47.45703125 C-47.03300781 46.86535156 -47.37460937 46.27367187 -47.7265625 45.6640625 C-51.13883254 38.47448888 -50.90928214 28.30789286 -49 20.703125 C-48.06566663 18.45525184 -47.00646435 16.50359042 -45.69140625 14.45703125 C-45.07265625 13.43222656 -45.07265625 13.43222656 -44.44140625 12.38671875 C-34.89940132 -1.8720727 -15.67668952 -7.48145554 0 0 Z " fill="#020202" transform="translate(689.69140625,238.54296875)"/>
<path d="M0 0 C0.70560059 0.00161133 1.41120117 0.00322266 2.13818359 0.00488281 C7.99416267 0.142227 12.25340118 1.3124559 17.1875 4.375 C18.21875 4.9525 19.25 5.53 20.3125 6.125 C28.95437795 12.88820883 33.84700371 20.70389783 35.1875 31.625 C35.65837212 41.70166327 32.76235948 50.76658993 26.171875 58.44140625 C22.83323799 61.6946057 19.27176817 64.14721736 15.1875 66.375 C14.57390625 66.7153125 13.9603125 67.055625 13.328125 67.40625 C6.44670968 70.58228784 -2.29580647 70.65330949 -9.50390625 68.61328125 C-11.71875904 67.66512938 -13.74751936 66.61313154 -15.8125 65.375 C-16.84375 64.776875 -17.875 64.17875 -18.9375 63.5625 C-26.62362175 57.71436388 -31.37821051 51.949872 -33.8125 42.375 C-35.19036201 31.65623851 -34.04324154 22.68834538 -27.75 13.8125 C-20.44007553 4.86093995 -11.59846914 -0.02759569 0 0 Z " fill="#020202" transform="translate(408.8125,611.625)"/>
<path d="M0 0 C10.01650141 5.6507855 16.55792546 14.65624534 19.75 25.5625 C20.95863344 37.34667603 17.84896819 46.65051117 10.5078125 55.875 C4.92226433 62.07522572 -1.80203084 65.767393 -10.171875 66.4453125 C-18.06813661 66.78612697 -25.22715853 66.4321253 -32 62 C-32.68191406 61.5875 -33.36382813 61.175 -34.06640625 60.75 C-41.87852079 55.53204114 -46.91803517 48.12562154 -49 39 C-50.29301804 27.02715028 -48.73917741 18.34565655 -41.171875 8.66015625 C-30.17761894 -3.33967201 -14.89987429 -6.00984275 0 0 Z " fill="#020202" transform="translate(689,440)"/>
<path d="M0 0 C8.56410299 5.40509377 14.38393376 12.18990271 18.62109375 21.26953125 C20.84472431 31.57909114 19.07948451 41.92147188 13.80078125 51.0703125 C7.35865887 59.98441207 -0.94451361 64.60360331 -11.69140625 66.45703125 C-21.33665937 67.99118049 -28.77276024 64.61846196 -36.69140625 59.45703125 C-44.10330689 53.26495752 -49.05322557 45.1554764 -50.1328125 35.515625 C-50.49138524 27.84054669 -49.92940272 21.05241325 -45.69140625 14.45703125 C-45.07265625 13.43222656 -45.07265625 13.43222656 -44.44140625 12.38671875 C-34.89940132 -1.8720727 -15.67668952 -7.48145554 0 0 Z " fill="#020202" transform="translate(245.69140625,349.54296875)"/>
<path d="M0 0 C6.63491453 3.71721346 11.4735234 8.42468504 13.6875 15.8125 C14.51663252 22.51256077 14.62932317 29.10047683 11.0859375 35.03125 C6.83284102 40.44860195 2.39668072 44.04341255 -4.3125 45.8125 C-11.93676662 46.62600736 -19.06714478 46.66049264 -25.3125 41.8125 C-30.36080905 37.15606882 -33.84969047 31.94921725 -34.62890625 24.984375 C-34.88536189 18.39925596 -34.40130708 13.12680388 -30.3125 7.8125 C-21.90288249 -1.23559172 -11.67173868 -5.50586482 0 0 Z " fill="#030303" transform="translate(231.3125,238.1875)"/>
<path d="M0 0 C6.21037383 3.63973553 11.2361901 9.25575375 13.45703125 16.12109375 C14.34801206 24.51019874 13.60825629 31.61134058 8.69921875 38.63671875 C3.88720165 43.96850076 -3.47581808 47.42167425 -10.66796875 47.80859375 C-17.84876397 47.30062753 -24.14485068 44.03542413 -28.98046875 38.74609375 C-33.45806915 32.83515385 -35.18045272 27.35181408 -34.95703125 19.96875 C-34.06517188 13.83511339 -31.27166528 8.30806826 -26.60546875 4.18359375 C-18.48996274 -1.28195112 -9.57501522 -3.30933706 0 0 Z " fill="#030303" transform="translate(693.54296875,569.87890625)"/>
<path d="M0 0 C6.54054176 3.62562315 11.52443293 8.80279374 13.8125 16 C14.7468489 24.90665054 13.63808933 31.68303229 7.9375 38.75 C3.56401321 43.57815621 -0.6853484 45.71741898 -7.140625 46.23828125 C-15.16666915 46.41896234 -20.87265328 45.97990428 -26.8984375 40.421875 C-32.8441714 33.98308024 -34.79859906 27.63155769 -34.52734375 18.9296875 C-33.66852437 11.52607216 -29.94456382 7.06681667 -24.25390625 2.4765625 C-16.59316469 -2.99746455 -8.54806591 -3.84533056 0 0 Z " fill="#030303" transform="translate(577.1875,238)"/>
<path d="M0 0 C6.70905933 4.03107346 10.08234135 9.4771827 13.5 16.3125 C14.13696679 24.33828152 13.02853903 32.10274628 7.69921875 38.4609375 C1.33456514 44.31889053 -4.97181881 46.98924689 -13.65234375 46.7265625 C-19.75916383 45.83860238 -25.28865857 43.04457168 -29.4375 38.4375 C-34.66520812 30.51673013 -35.78065163 23.83800796 -34.5 14.3125 C-32.12756127 7.74266967 -28.40504688 3.51825576 -22.33203125 0.15234375 C-15.65381037 -2.90910079 -6.69252605 -3.1735114 0 0 Z " fill="#030303" transform="translate(631.5,175.6875)"/>
<path d="M0 0 C6.91618831 3.89721722 11.39166916 9.28473052 13.6875 16.9375 C14.80679897 25.00888921 13.30201537 31.2221658 8.6875 37.9375 C4.39529154 42.85467288 -0.95245406 45.58516782 -7.3671875 46.2578125 C-15.54274306 46.54103036 -21.22788361 45.74656687 -27.28125 40.1015625 C-33.23166222 33.73657238 -34.7423249 28.31924166 -34.56640625 19.6875 C-33.99451563 13.49348467 -31.73236724 8.35736724 -27.3125 3.9375 C-18.75175398 -2.17979422 -10.01127883 -4.62642431 0 0 Z " fill="#030303" transform="translate(294.3125,633.0625)"/>
<path d="M0 0 C5.49235787 3.34928433 10.426487 8.08691721 12.4375 14.3125 C13.61830234 23.29971778 12.78673138 30.85288693 7.4375 38.3125 C4.9375 40.75 4.9375 40.75 2.4375 42.3125 C1.591875 42.869375 0.74625 43.42625 -0.125 44 C-5.29778037 46.78534327 -10.79823216 47.03096891 -16.5625 46.3125 C-23.37027464 44.08649744 -28.73285753 40.41922718 -32.5625 34.3125 C-35.72738555 27.93922532 -35.62771458 19.87659459 -34.02734375 13.01953125 C-31.45680835 6.65640264 -27.32887163 2.40193956 -21.32421875 -0.734375 C-14.58202838 -3.06124127 -6.52372727 -3.01475275 0 0 Z " fill="#030303" transform="translate(348.5625,570.6875)"/>
<path d="M0 0 C6.15666569 3.80107186 10.37069725 9.54815751 12.4375 16.4375 C13.55474776 24.49409773 12.09325625 30.7580105 7.4375 37.4375 C2.79382512 42.6535348 -1.91631587 45.03565836 -8.9296875 45.80859375 C-16.5227763 45.95233819 -21.85956201 45.71603331 -27.5625 40.4375 C-33.47770503 34.73449963 -35.60592302 29.82083923 -35.9375 21.5625 C-35.80441645 14.40260496 -33.79597338 10.0935224 -29.25 4.6875 C-20.91259364 -2.29265416 -10.48295522 -4.67483138 0 0 Z " fill="#020202" transform="translate(295.5625,287.5625)"/>
<path d="M0 0 C5.11030881 2.95505501 9.19100429 7.1934726 11.13671875 12.8515625 C12.58525563 21.41817848 12.36398658 29.40983384 7.36328125 36.64453125 C3.86442233 41.1809067 0.10540009 43.91353309 -5.5 45 C-7.78869404 45.14338806 -10.08200956 45.22041303 -12.375 45.25 C-14.16550781 45.28867187 -14.16550781 45.28867187 -15.9921875 45.328125 C-21.75927026 44.78866514 -26.43806728 42.06193272 -30.5 38 C-35.7988721 30.59031347 -36.93217734 22.93064871 -35.5 14 C-32.88247366 7.05986854 -28.82962533 2.70223369 -22.5 -1 C-15.3734373 -3.3755209 -6.84743469 -3.10583796 0 0 Z " fill="#020202" transform="translate(632.5,522)"/>
<path d="M0 0 C4.67508051 1.67597226 7.4760723 3.69997503 10 8 C11.1917561 12.41602775 11.36470496 15.8844319 9.9375 20.25 C7.63103246 23.52369586 5.6492918 26.27100086 2 28 C-3.31875852 28.91020421 -7.59480791 28.65241061 -12.5 26.375 C-16.36274116 22.7053959 -18.12364837 19.30510501 -18.4375 14 C-18.21052357 8.59383408 -15.36982157 5.48723485 -11.8125 1.625 C-7.82478062 -0.67901564 -4.50102419 -0.65209184 0 0 Z " fill="#060606" transform="translate(184,306)"/>
<path d="M0 0 C4.25402429 2.41972024 7.12341559 5.47152869 9 10 C9.4850824 15.23888993 8.85631117 18.56779301 6 23 C1.16522241 27.36309197 -1.96747364 28.46980124 -8.38671875 28.4140625 C-12.76320474 27.72062825 -15.25947239 25.3557481 -18 22 C-20.31772086 18.06995159 -20.47452968 14.50803192 -20 10 C-15.75836119 1.67986232 -9.15793386 -1.93864635 0 0 Z " fill="#060606" transform="translate(611,306)"/>
<path d="M0 0 C3.17387864 2.14052281 4.84820787 3.41688375 6.6875 6.8125 C7.48992133 12.17562218 7.37862215 16.4302557 4.9375 21.3125 C0.2185443 26.55578411 0.2185443 26.55578411 -3.8984375 27.24609375 C-9.83092578 27.25440256 -13.80223533 27.09725143 -18.3125 22.8125 C-21.61049116 18.08537934 -22.21629228 13.41601216 -21.3125 7.8125 C-16.75987475 -1.29275051 -9.25158715 -3.31660671 0 0 Z " fill="#050505" transform="translate(567.3125,569.1875)"/>
<path d="M0 0 C4.02056732 2.04683427 6.59959445 4.20735924 9 8 C9.89278855 12.80175464 9.60414274 17.55383017 7.375 21.9375 C4.28952386 25.91614028 1.84786983 27.59097022 -3.17578125 28.3125 C-7.24050375 28.53110692 -9.65578356 28.16573384 -13.375 26.375 C-17.58005947 22.57042238 -19.14538444 19.1067342 -19.4375 13.5 C-19.27137833 9.01471493 -18.0067292 6.41304396 -15 3 C-10.63912272 -0.84783289 -5.53618134 -0.80735978 0 0 Z " fill="#040404" transform="translate(729,519)"/>
<path d="M0 0 C4.04457622 2.02228811 6.61677114 4.18411789 9 8 C9.87141484 13.1970867 9.59466314 17.71918709 7.375 22.5 C3.7053959 26.36274116 0.30510501 28.12364837 -5 28.4375 C-9.23419303 28.2674846 -11.74108092 26.72839737 -15 24 C-18.51767087 19.99713315 -19.3539022 16.40504203 -19.28515625 11.0625 C-18.70895437 6.89490281 -16.21715472 4.10650429 -13.1953125 1.359375 C-9.13652183 -1.15389752 -4.60338359 -0.60711291 0 0 Z " fill="#050505" transform="translate(349,683)"/>
<path d="M0 0 C3.64856489 1.88196726 5.7329699 4.59945486 8 8 C8.70522927 13.22361682 8.60457319 17.69784237 6.375 22.5 C2.55541475 26.52061605 -0.94923522 28.14247974 -6.4375 28.5625 C-10.99202329 28.40863097 -13.43877557 26.80081662 -16.625 23.63671875 C-19.88200386 19.75977381 -20.45914942 16.03577949 -20.31640625 10.9921875 C-19.63025455 6.6719731 -17.06816178 3.97105617 -13.9375 1.125 C-9.30883923 -0.64767859 -4.88193183 -0.7802501 0 0 Z " fill="#040404" transform="translate(350,257)"/>
<path d="M0 0 C3.93244436 2.04953668 6.40422343 4.13204365 7.96875 8.2734375 C8.66312753 12.96048582 8.44604321 16.30049365 6.34375 20.5859375 C3.22898336 24.11054185 0.58048611 26.81392199 -4.20703125 27.65625 C-8.26156007 27.86068002 -10.70272577 27.43161583 -14.40625 25.6484375 C-18.61130947 21.84385988 -20.17663444 18.3801717 -20.46875 12.7734375 C-20.30262833 8.28815243 -19.0379792 5.68648146 -16.03125 2.2734375 C-11.44378976 -1.65867128 -5.5997399 -2.00298389 0 0 Z " fill="#040404" transform="translate(305.03125,519.7265625)"/>
<path d="M0 0 C4.30543683 2.23551528 7.60229159 4.7579005 10 9 C10.82568632 14.02994625 10.56729109 17.84440704 8.3125 22.4375 C4.51727712 26.64301725 1.77284037 28.17741998 -3.875 28.5625 C-8.71415208 28.42527031 -11.17080228 26.99125552 -14.625 23.703125 C-17.77316984 19.80368736 -18.60527516 16.33361952 -18.5234375 11.390625 C-17.54820869 6.93659493 -14.41765362 3.86877991 -11 1 C-7.27200105 -0.24266632 -3.87217006 -0.52902513 0 0 Z " fill="#030303" transform="translate(564,142)"/>
<path d="M0 0 C3.99062431 2.48472834 5.68655935 3.96748964 7.0625 8.5 C6.99187106 12.45522051 6.51464223 13.98242933 4 17 C1.45843429 18.93961593 -0.35321738 19.88681304 -3.5 20.4375 C-7.57206059 19.7248894 -9.92589768 17.41586215 -12.375 14.1875 C-13.36126817 10.7355614 -12.96672989 8.44397522 -12 5 C-8.28903472 0.94382864 -5.5463623 -1.15549215 0 0 Z " fill="#0A0A0A" transform="translate(742,477)"/>
<path d="M0 0 C4.10007872 0.38679988 6.11398775 1.78344381 9.3125 4.3125 C10.9268926 7.54128519 10.8943272 10.82153682 10.3125 14.3125 C7.75545652 17.95434981 6.08977291 19.09042202 1.8125 20.3125 C-2.1138416 20.3125 -3.65332334 19.73984133 -6.6875 17.3125 C-9.1309877 13.64726845 -9.53457648 10.57279643 -8.6875 6.3125 C-6.25 3.375 -6.25 3.375 -3.6875 1.3125 C-2.6875 0.3125 -2.6875 0.3125 0 0 Z " fill="#090909" transform="translate(283.6875,476.6875)"/>
<path d="M0 0 C3.20447947 2.4381909 4.69295309 4.1511056 6.0625 7.9375 C5.97834406 12.06114097 4.62570503 13.87753996 2 17 C-0.64014707 19.09390974 -2.01175464 19 -5.4375 19 C-10.0516797 17.70479166 -11.48877431 16.03318066 -14 12 C-14.66026381 8.8307337 -14.69114546 7.09007869 -12.9375 4.32421875 C-8.70817715 -0.94984754 -6.54860117 -1.55390536 0 0 Z " fill="#080808" transform="translate(624,357)"/>
<path d="M0 0 C4.86707569 0.47872876 6.57558653 1.75273969 9.8125 5.375 C10.9375 8.8125 10.9375 8.8125 10.8125 12.375 C7.87579114 17.84335443 7.87579114 17.84335443 4.8125 19.375 C0.61508754 19.86928988 -2.96911011 20.07557419 -6.6875 17.9375 C-8.87175184 14.20606978 -9.67267285 10.6953487 -9.1875 6.375 C-6.8125 3.375 -6.8125 3.375 -4.1875 1.375 C-3.1875 0.375 -3.1875 0.375 0 0 Z " fill="#090909" transform="translate(514.1875,131.625)"/>
<path d="M0 0 C3.4407869 0.0555962 4.21104736 0.34765028 7.1875 2.4375 C9.69488346 6.0086219 10.40331912 8.00540496 10.25 12.375 C8.5230331 15.40227138 6.41046671 17.79476665 3.25 19.375 C-0.0625 19.75 -0.0625 19.75 -3.75 19.375 C-7.3586524 16.39393932 -9.50217316 14.23370127 -10.125 9.5625 C-9.62954982 5.3511735 -7.90647263 4.06954981 -4.75 1.375 C-3.75 0.375 -3.75 0.375 0 0 Z " fill="#090909" transform="translate(514.75,586.625)"/>
<path d="M0 0 C4.57793505 0.5182568 6.04473754 2.18323201 9.3125 5.375 C10.9790436 8.70808719 10.72877795 12.05047926 9.625 15.5625 C7.81356764 18.06400183 6.12165461 19.09811154 3.3125 20.375 C-0.64033726 20.95145543 -2.14827309 20.73448461 -5.5 18.5 C-8.48607385 15.59924254 -8.64433819 14.81381175 -9.0625 10.5625 C-9.04261166 6.91630475 -8.75358692 6.45464321 -6.25 3.4375 C-5.404375 2.756875 -4.55875 2.07625 -3.6875 1.375 C-2.6875 0.375 -2.6875 0.375 0 0 Z " fill="#080808" transform="translate(164.6875,355.625)"/>
<path d="M0 0 C3.5386994 1.65139305 4.81070153 2.71605229 7 6 C7.32399838 10.51105433 6.78910894 14.01959192 3.9375 17.5625 C0.12224384 19.42954025 -2.83599701 19.94025874 -7 19 C-10.13836313 16.97314048 -11.65870267 15.54702808 -12.4765625 11.83984375 C-12.74519692 7.60531698 -12.34576589 5.51340996 -9.9375 1.9375 C-6.24975797 -0.49484049 -4.34495691 -0.62070813 0 0 Z " fill="#070707" transform="translate(393,247)"/>
<path d="M0 0 C2.9375 2.0625 2.9375 2.0625 5 5 C5.5818272 8.49096318 5.6143926 11.77121481 4 15 C-1.61 15 -7.22 15 -13 15 C-14.60847182 11.78305636 -14.61309149 8.47862778 -14 5 C-9.52139324 -0.53932942 -6.92988354 -1.64437915 0 0 Z " fill="#070707" transform="translate(394,702)"/>
</svg>
